<svg width="13" height="15" fill="none" xmlns="http://www.w3.org/2000/svg"><path d="M11.59 3.853a.312.312 0 00-.315-.285h-2.39v-.903A2.67 2.67 0 006.21 0a2.67 2.67 0 00-2.674 2.665v.903H1.145a.317.317 0 00-.315.285l-.824 9.444c-.038.438.11.872.41 1.196.298.323.719.507 1.16.507h9.272c.44 0 .862-.184 1.16-.507.299-.324.447-.758.41-1.196l-.828-9.444zM4.165 2.665c0-1.125.916-2.038 2.045-2.038 1.13 0 2.045.913 2.045 2.038v.903h-4.09v-.903zm7.378 11.404a.933.933 0 01-.695.304H1.572a.939.939 0 01-.94-1.022l.799-9.156h2.105v1.957a1.066 1.066 0 00.314 2.085 1.066 1.066 0 00.315-2.085v-1.96h4.09v1.96a1.066 1.066 0 00.315 2.085 1.066 1.066 0 00.315-2.085v-1.96h2.101l.8 9.156a.93.93 0 01-.243.72zm-7.74-7.334a.359.359 0 00.095 0 .44.44 0 11-.095 0zm4.72 0a.358.358 0 00.094 0 .44.44 0 11-.094 0z" fill="#000"/></svg>