<svg width="60" height="58" viewBox="0 0 60 58" fill="none" xmlns="http://www.w3.org/2000/svg">
<path d="M43.0367 30.8751L46.0156 27.8847L43.2378 25.0963L48.2744 20.0403C48.5622 19.7514 48.6867 19.3532 48.6356 18.9628C48.6878 18.5736 48.5656 18.1754 48.2789 17.8876L39.3489 8.92334H32.4489H27.5522H20.6522L11.7222 17.8876C11.4356 18.1754 11.3133 18.5725 11.3656 18.9628C11.3144 19.3532 11.4389 19.7514 11.7267 20.0403L16.7633 25.0963L13.9856 27.8847L16.9644 30.8751C6.60556 35.8753 0 46.3487 0 57.9999H2.22222C2.22222 46.7 8.93222 36.597 19.3156 32.2604L20.8478 31.6201L17.1267 27.8847L18.3333 26.6734L22.7278 31.0848L23.34 30.9286C24.4333 30.6498 25.5667 30.4434 26.8044 30.2973C28.4189 30.1166 30 30.0709 31.5922 30.1612C32.1233 30.1913 32.6567 30.2371 33.1933 30.2973C34.4322 30.4423 35.5656 30.6486 36.6578 30.9286L37.27 31.0848L41.6644 26.6734L42.8733 27.8847L39.1511 31.6213L40.6833 32.2615C51.0678 36.597 57.7778 46.7 57.7778 57.9999H60C60 46.3487 53.3944 35.8753 43.0367 30.8751ZM38.4289 11.1541L45.0956 17.8464H39.4767H38.2822L32.4489 11.1541H38.4289ZM30 11.733L35.3289 17.8464H24.67L30 11.733ZM21.5711 11.1541H27.5511L21.7178 17.8464H20.5233H14.9044L21.5711 11.1541ZM25.0022 28.303C24.4589 28.3945 23.9289 28.4982 23.4111 28.6164L18.3333 23.5192L14.9044 20.0771H19.7733H21.4944L22.9089 23.324L25.0722 28.2896C25.0489 28.2941 25.0267 28.2997 25.0022 28.303ZM32.6278 27.9996C32.53 27.9907 32.4344 27.9941 32.3367 27.9862C31.5633 27.9271 30.7933 27.8847 30.0244 27.8847C30.0167 27.8847 30.0078 27.8847 30 27.8847C29.99 27.8847 29.98 27.8859 29.97 27.8859C29.2056 27.887 28.4367 27.9271 27.6656 27.9862C27.5667 27.9941 27.4711 27.9907 27.3722 27.9996L23.9211 20.0771H36.0789L32.6278 27.9996ZM41.6667 23.5192L36.5889 28.6164C36.0711 28.4982 35.5422 28.3945 35 28.303C34.9756 28.2986 34.9533 28.293 34.9278 28.2885L37.0911 23.3229L38.5044 20.0771H40.2256H45.0944L41.6667 23.5192Z" fill="#72283F"/>
<path d="M33.2978 32.5469C32.7133 32.4644 32.1166 32.4175 31.5011 32.3818C30.5089 32.3305 29.4411 32.3216 28.5011 32.4052C27.9122 32.4398 27.3222 32.4978 26.7311 32.5692C14.0955 34.2523 4.56665 45.1852 4.56665 57.9998H6.78887C6.78887 46.2995 15.4878 36.3169 27.01 34.781C27.5433 34.7163 28.0889 34.6639 28.6633 34.6282C29.5578 34.5501 30.5055 34.5624 31.38 34.6081C31.9278 34.6393 32.4644 34.6817 33.0089 34.7576C44.6655 36.2009 53.4555 46.1924 53.4555 57.9998H55.6778C55.6778 45.067 46.0489 34.124 33.2978 32.5469Z" fill="#72283F"/>
<path d="M20 0H17.7778V3.34613H20V0Z" fill="#72283F"/>
<path d="M14.4445 6.69238H11.1111V8.92314H14.4445V6.69238Z" fill="#72283F"/>
<path d="M13.0077 0.326428L11.4363 1.90381L14.7699 5.25022L16.3412 3.67284L13.0077 0.326428Z" fill="#72283F"/>
<path d="M42.2222 2.23047H40V4.46122H42.2222V2.23047Z" fill="#72283F"/>
<path d="M47.7778 7.80762H45.5556V10.0384H47.7778V7.80762Z" fill="#72283F"/>
<path d="M50 3.34619H47.7778V5.57695H50V3.34619Z" fill="#72283F"/>
</svg>
