<svg width="51" height="58" viewBox="0 0 51 58" fill="none" xmlns="http://www.w3.org/2000/svg">
<path d="M49.8561 12.8588H42.9858C44.4716 11.5166 45.4873 9.67272 45.7402 7.57613C45.8813 6.4088 45.7624 5.31803 45.3965 4.42195C44.075 1.18459 39.8042 -0.659772 35.6736 0.22214C35.6402 0.22922 35.6073 0.23807 35.5743 0.247805C33.1329 1.00228 30.5099 3.49358 27.7778 7.65224C26.8476 9.06781 26.0686 10.4285 25.4998 11.483C24.9309 10.4285 24.152 9.06781 23.2222 7.65224C20.4901 3.49358 17.8666 1.00228 15.4257 0.247805C15.3927 0.23807 15.3598 0.22922 15.3264 0.22214C13.2322 -0.225233 11.0494 0.00796752 9.1799 0.877932C8.60794 1.14432 8.36135 1.82135 8.6293 2.38997C8.89726 2.95903 9.57783 3.20418 10.1502 2.93779C11.5336 2.29351 13.2233 2.11119 14.794 2.43511C18.1065 3.50376 21.7805 9.33287 23.6512 12.8588H13.9497C11.4152 12.8588 9.10201 11.4047 8.0569 9.15366C7.79206 8.58371 7.11282 8.33458 6.53908 8.59787C5.96533 8.86116 5.71518 9.53687 5.98002 10.1073C6.47187 11.1671 7.17069 12.0968 8.01639 12.8588H1.14393C0.512319 12.8588 0 13.3681 0 13.996V25.6989C0 26.3273 0.512319 26.8362 1.14393 26.8362H2.4107V56.8628C2.4107 57.4911 2.92302 58 3.55463 58H47.4449C48.077 58 48.5889 57.4911 48.5889 56.8628V26.8362H49.8561C50.4877 26.8362 51 26.3273 51 25.6989V13.996C51 13.3681 50.4877 12.8588 49.8561 12.8588ZM36.2055 2.43511C39.2167 1.81383 42.3805 3.08205 43.2765 5.27687C43.4973 5.81761 43.5636 6.51898 43.4688 7.30532C43.0864 10.4714 40.3272 12.8588 37.0503 12.8588H27.3483C29.2169 9.33287 32.889 3.50553 36.2055 2.43511ZM2.28785 24.5617V15.1332H16.2184V24.5617H2.28785ZM30.242 55.7255H4.69856V26.8362H18.4702V47.7649C18.4702 48.3932 18.9821 48.9021 19.6141 48.9021C20.2457 48.9021 20.758 48.3932 20.758 47.7649V26.8362H30.242V55.7255ZM32.4938 24.5617H18.5062V15.1332H32.4938V24.5617ZM46.3014 55.7255H32.5298V26.8362H46.301V55.7255H46.3014ZM48.7121 24.5617H34.7816V15.1332H48.7121V24.5617Z" fill="#72283F"/>
<path d="M20.7586 52.3131C20.7586 52.9436 20.2445 53.4547 19.6102 53.4547C18.9759 53.4547 18.4618 52.9436 18.4618 52.3131C18.4618 51.6825 18.9759 51.1714 19.6102 51.1714C20.2445 51.1714 20.7586 51.6825 20.7586 52.3131Z" fill="#72283F"/>
<path d="M7.81874 5.18366C7.81874 5.81423 7.30463 6.32532 6.67035 6.32532C6.03607 6.32532 5.52197 5.81423 5.52197 5.18366C5.52197 4.55309 6.03607 4.04199 6.67035 4.04199C7.30463 4.04199 7.81874 4.55309 7.81874 5.18366Z" fill="#72283F"/>
</svg>
