<svg width="42" height="58" viewBox="0 0 42 58" fill="none" xmlns="http://www.w3.org/2000/svg">
<path d="M21.0054 58H21.0019C20.3015 58 19.7338 57.4928 19.7338 56.8672C19.7338 56.2415 20.3015 55.7344 21.0019 55.7344C21.7023 55.7344 22.2718 56.2415 22.2718 56.8672C22.2718 57.4928 21.7058 58 21.0054 58Z" fill="#72283F"/>
<path d="M41.0441 41.8284V37.3116C41.0441 37.3054 41.0441 37.2992 41.044 37.2929C40.9861 34.1511 39.6627 31.8265 36.9983 30.1863C34.78 28.8207 31.9881 28.1487 29.2881 27.4989C28.5187 27.3137 27.7796 27.1358 27.0688 26.9461V24.549C29.9616 22.8026 31.8675 19.8453 31.8675 16.4976V15.2842C32.0147 15.1854 32.1563 15.0771 32.2904 14.9577C33.7122 13.6876 33.8355 11.6907 32.6618 10.2936V5.75025C32.6617 2.57952 29.7741 0 26.2247 0H15.7754C12.2261 0 9.33843 2.57952 9.33843 5.75025V10.2937C8.16479 11.6908 8.28818 13.6877 9.71139 14.9592C9.84492 15.0781 9.98619 15.186 10.1328 15.2845V16.4976C10.1328 19.8448 12.0385 22.8016 14.9315 24.5481V26.9461C14.2207 27.1358 13.4814 27.3138 12.7121 27.4989C10.0122 28.1487 7.22029 28.8207 5.00197 30.1863C2.3374 31.8265 1.01412 34.1511 0.956289 37.2929C0.956162 37.2992 0.956162 37.3054 0.956162 37.3116V41.8284C0.365599 42.3611 0 43.0934 0 43.9007V47.1246C0 48.7496 1.4799 50.0717 3.29901 50.0717H6.45853C6.62491 50.0717 6.78939 50.064 6.9517 50.0501V55.3289C6.9517 56.8017 8.29135 57.9999 9.938 57.9999H15.3046C16.0049 57.9999 16.5727 57.4927 16.5727 56.8671C16.5727 56.2414 16.0049 55.7343 15.3046 55.7343H9.938C9.69402 55.7343 9.48794 55.5487 9.48794 55.3289V49.1789C10.7452 48.3478 11.562 47.014 11.562 45.5127C11.562 44.0114 10.745 42.6777 9.48794 41.8465V38.4387C9.48794 38.2207 9.69402 38.0366 9.938 38.0366H15.8553V44.9315C15.8553 45.3503 16.114 45.7349 16.5278 45.9315C16.7146 46.0203 16.9191 46.0643 17.1233 46.0643C17.3713 46.0643 17.6186 45.9993 17.8319 45.8709L21.0015 43.9633L24.1676 45.8707C24.5564 46.1049 25.0582 46.1284 25.472 45.9317C25.886 45.7351 26.1447 45.3505 26.1447 44.9316V38.0367H32.062C32.3079 38.0367 32.5156 38.2208 32.5156 38.4388V41.8443C31.2565 42.6754 30.438 44.0102 30.438 45.5128C30.438 47.0155 31.2565 48.3503 32.5156 49.1813V55.3291C32.5156 55.5487 32.3079 55.7344 32.062 55.7344H26.6954C25.9951 55.7344 25.4273 56.2415 25.4273 56.8672C25.4273 57.4928 25.9951 58 26.6954 58H32.062C33.7106 58 35.0518 56.8018 35.0518 55.3291V50.0505C35.213 50.0643 35.3762 50.0719 35.5415 50.0719H38.701C40.5201 50.0719 42 48.7499 42 47.1248V43.901C42.0003 43.0935 41.6347 42.3611 41.0441 41.8284ZM11.8747 5.75025C11.8747 3.82878 13.6246 2.26562 15.7754 2.26562H26.2247C28.3756 2.26562 30.1255 3.82878 30.1255 5.75025V8.28774C27.4677 6.62727 24.311 5.73246 21.0001 5.73246C17.6891 5.73246 14.5324 6.62715 11.8747 8.28774V5.75025ZM11.5032 13.3558C10.9344 12.8475 10.9344 12.0207 11.5031 11.5124L11.5034 11.5123C14.0401 9.24621 17.4128 7.99819 21.0001 7.99819C24.5873 7.99819 27.96 9.24621 30.4968 11.5123L30.497 11.5124C31.0659 12.0207 31.0658 12.8476 30.4985 13.3544C29.9298 13.8607 29.0044 13.8608 28.4372 13.3558C26.4504 11.581 23.81 10.6037 21.0021 10.6037C18.1942 10.6037 15.5537 11.581 13.5685 13.3544C12.9986 13.8617 12.0716 13.8617 11.5032 13.3558ZM12.669 16.4976V15.9958C13.6467 15.9667 14.615 15.6213 15.3602 14.9578C16.8679 13.611 18.8714 12.8693 21.0018 12.8693C23.1323 12.8693 25.1359 13.6109 26.6451 14.9592C27.3886 15.6211 28.3548 15.9658 29.3311 15.9951V16.4978C29.3311 20.6024 25.5946 23.9417 21.0018 23.9417C16.4072 23.9416 12.669 20.6023 12.669 16.4976ZM24.5324 25.6782V27.7782C24.5324 29.5172 22.9487 30.9321 21.0018 30.9321C19.0531 30.9321 17.4677 29.5172 17.4677 27.7782V25.6774C18.5766 26.019 19.7648 26.2072 21.0018 26.2072C22.2376 26.2072 23.4246 26.0192 24.5324 25.6782ZM3.29901 47.8061C2.87838 47.8061 2.53624 47.5003 2.53624 47.1246V43.9007C2.53624 43.525 2.87838 43.2193 3.29901 43.2193H6.45853C7.87414 43.2193 9.02584 44.2482 9.02584 45.5127C9.02584 46.7773 7.87414 47.8061 6.45853 47.8061H3.29901ZM23.6086 42.8012L21.7108 41.658C21.2825 41.3998 20.7216 41.3997 20.2932 41.6578L18.3914 42.8024V38.0367H23.6086V42.8012ZM32.0621 35.771H9.938C8.29135 35.771 6.9517 36.9677 6.9517 38.4387V40.9754C6.78939 40.9614 6.62491 40.9537 6.45853 40.9537H3.49228V37.3215C3.53843 34.9364 4.47558 33.2617 6.44103 32.0518C8.30073 30.9071 10.8787 30.2865 13.3718 29.6865C13.9629 29.5442 14.5641 29.3985 15.1595 29.2457C15.8784 31.5229 18.2244 33.1975 21.0017 33.1975C23.7775 33.1975 26.1221 31.523 26.8405 29.2458C27.4358 29.3985 28.0371 29.5442 28.6281 29.6865C31.1212 30.2865 33.6993 30.907 35.5588 32.0518C37.5244 33.2617 38.4616 34.9363 38.5076 37.3215V40.9536H35.5416C35.3764 40.9536 35.2132 40.9613 35.052 40.975V38.4387C35.0521 36.9677 33.7108 35.771 32.0621 35.771ZM39.464 47.1247C39.464 47.5005 39.1219 47.8062 38.7012 47.8062H35.5416C35.1314 47.8062 34.7447 47.7176 34.4005 47.5641C34.3704 47.549 34.339 47.5356 34.3073 47.5227C33.5136 47.1321 32.9744 46.3778 32.9744 45.5128C32.9744 44.2483 34.1261 43.2195 35.5416 43.2195H38.7011C39.1217 43.2195 39.4639 43.5251 39.4639 43.9008V47.1247H39.464Z" fill="#72283F"/>
</svg>
