<svg width="58" height="58" viewBox="0 0 58 58" fill="none" xmlns="http://www.w3.org/2000/svg">
<path d="M57.0645 0H0.935484C0.418161 0 0 0.419097 0 0.935484V4.67742C0 5.19381 0.418161 5.6129 0.935484 5.6129H13.645L18.9838 10.9517C19.1587 11.1276 19.3963 11.2258 19.6452 11.2258H21.5161V14.0323V31.8065C21.5161 31.9992 21.5882 32.1675 21.6873 32.3163L21.6733 32.3256L25.3254 37.8048L26.2216 41.3886C26.3264 41.8049 26.6996 42.0968 27.129 42.0968H28.0645V50.5161H29.9355V42.0968H30.871C31.3004 42.0968 31.6736 41.8049 31.7784 41.3886L32.6746 37.8048L36.3267 32.3256L36.3127 32.3163C36.4118 32.1675 36.4839 31.9992 36.4839 31.8065V14.0323V11.2258H38.3548C38.6037 11.2258 38.8413 11.1276 39.0162 10.9517L44.355 5.6129H57.0645C57.5818 5.6129 58 5.19381 58 4.67742V0.935484C58 0.419097 57.5818 0 57.0645 0ZM14.4195 3.74194L12.5486 1.87097H15.5159L17.3869 3.74194H14.4195ZM11.774 3.74194H8.80664L6.93568 1.87097H9.90303L11.774 3.74194ZM20.0325 3.74194L18.1615 1.87097H21.1288L22.9998 3.74194H20.0325ZM25.6454 3.74194L23.7744 1.87097H26.7417L28.6127 3.74194H25.6454ZM31.2583 3.74194L29.3873 1.87097H32.3546L34.2256 3.74194H31.2583ZM36.8712 3.74194L35.0002 1.87097H37.9675L39.8385 3.74194H36.8712ZM42.4841 3.74194L40.6131 1.87097H43.5805L45.4514 3.74194H42.4841ZM46.226 1.87097H49.1934L51.0643 3.74194H48.097L46.226 1.87097ZM1.87097 1.87097H4.29013L6.1611 3.74194H1.87097V1.87097ZM28.0645 22.4516H29.9355V25.2581C29.9355 25.7735 29.5164 26.1935 29 26.1935C28.4836 26.1935 28.0645 25.7735 28.0645 25.2581V22.4516ZM29.9355 20.5806H28.0645V14.9677H29.9355V20.5806ZM29 28.0645C30.5473 28.0645 31.8065 26.8054 31.8065 25.2581V14.9677H34.6129V30.871H23.3871V14.9677H26.1935V25.2581C26.1935 26.8054 27.4527 28.0645 29 28.0645ZM26.694 36.4839L24.1991 32.7419H28.0645V34.6129H29.9355V32.7419H33.8009L31.306 36.4839H26.694ZM27.8596 40.2258L27.391 38.3548H30.6081L30.1394 40.2258H27.8596ZM34.6129 13.0968H23.3871V11.2258H34.6129V13.0968ZM37.9675 9.35484H20.0325L16.2905 5.6129H41.7095L37.9675 9.35484ZM56.129 3.74194H53.7099L51.8389 1.87097H56.129V3.74194Z" fill="#72283F"/>
<path d="M27.129 52.3872H2.80645C1.25916 52.3872 0 53.6464 0 55.1937C0 56.7409 1.25916 58.0001 2.80645 58.0001H27.129C27.6464 58.0001 28.0645 57.581 28.0645 57.0646V53.3227C28.0645 52.8063 27.6464 52.3872 27.129 52.3872ZM26.1935 56.1291H2.80645C2.29006 56.1291 1.87097 55.7091 1.87097 55.1937C1.87097 54.6782 2.29006 54.2582 2.80645 54.2582H26.1935V56.1291Z" fill="#72283F"/>
<path d="M55.1936 52.3872H30.871C30.3537 52.3872 29.9355 52.8063 29.9355 53.3227V57.0646C29.9355 57.581 30.3537 58.0001 30.871 58.0001H55.1936C56.7409 58.0001 58.0001 56.7409 58.0001 55.1937C58.0001 53.6464 56.7409 52.3872 55.1936 52.3872ZM55.1936 56.1291H31.8065V54.2582H55.1936C55.71 54.2582 56.1291 54.6782 56.1291 55.1937C56.1291 55.7091 55.71 56.1291 55.1936 56.1291Z" fill="#72283F"/>
<path d="M31.1362 49.8525L34.8783 46.1105L36.2012 47.4335L32.4592 51.1755L31.1362 49.8525Z" fill="#72283F"/>
<path d="M21.7823 47.4333L23.1053 46.1104L26.8474 49.8524L25.5244 51.1754L21.7823 47.4333Z" fill="#72283F"/>
<path d="M16.8387 48.6453H20.5807V50.5162H16.8387V48.6453Z" fill="#72283F"/>
<path d="M37.4193 48.6453H41.1612V50.5162H37.4193V48.6453Z" fill="#72283F"/>
</svg>
