<svg width="58" height="58" viewBox="0 0 58 58" fill="none" xmlns="http://www.w3.org/2000/svg">
<path d="M38.3841 42.4281C38.2233 42.4281 38.0603 42.3877 37.9128 42.3022C36.9162 41.7278 35.7744 41.4248 34.6098 41.4248C34.0928 41.4248 33.6744 41.013 33.6744 40.5041C33.6744 39.9948 34.0928 39.5835 34.6098 39.5835C36.1064 39.5835 37.5748 39.9737 38.8572 40.7132C39.3035 40.9698 39.4533 41.5345 39.192 41.9723C39.018 42.2654 38.7056 42.4281 38.3841 42.4281Z" fill="#72283F"/>
<path d="M7.48284 24.8564C6.96538 24.8564 6.54749 24.4446 6.54749 23.9358V17.7336C6.54749 17.2243 6.96538 16.813 7.48284 16.813C8.0003 16.813 8.41819 17.2243 8.41819 17.7336V23.9358C8.41819 24.4446 8.0003 24.8564 7.48284 24.8564Z" fill="#72283F"/>
<path d="M35.5434 24.8564C35.0259 24.8564 34.608 24.4446 34.608 23.9358V15.6492C34.608 15.1398 35.0259 14.7285 35.5434 14.7285C36.0608 14.7285 36.4787 15.1398 36.4787 15.6492V23.9358C36.4787 24.4446 36.0608 24.8564 35.5434 24.8564Z" fill="#72283F"/>
<path d="M35.5434 16.5696C35.0259 16.5696 34.608 16.1579 34.608 15.649C34.608 8.03533 28.3141 1.84127 20.5796 1.84127C12.8451 1.84127 6.55112 8.03623 6.55112 15.649C6.55112 16.1579 6.13323 16.5696 5.61577 16.5696C5.09877 16.5696 4.68042 16.1579 4.68042 15.649C4.68042 7.01985 11.8125 0 20.5796 0C29.3467 0 36.4787 7.01985 36.4787 15.649C36.4787 16.1579 36.0609 16.5696 35.5434 16.5696Z" fill="#72283F"/>
<path d="M35.5443 20.2524C35.263 20.2524 34.9849 20.1279 34.8008 19.8915C30.6488 14.5556 28.6192 15.2339 24.1712 16.7245C20.2261 18.0448 14.8264 19.8546 5.47012 18.399C4.96042 18.3199 4.61149 17.8488 4.69279 17.3458C4.77226 16.8441 5.25227 16.4971 5.76287 16.5807C14.6569 17.9607 19.8091 16.2395 23.5702 14.9808C28.2374 13.4178 31.3193 12.3884 36.287 18.7712C36.6012 19.1745 36.5235 19.7526 36.113 20.0618C35.9426 20.1909 35.7426 20.2524 35.5443 20.2524Z" fill="#72283F"/>
<path d="M5.61577 18.4111C5.09877 18.4111 4.68042 17.9993 4.68042 17.4904V15.6492C4.68042 15.1398 5.09877 14.7285 5.61577 14.7285C6.13323 14.7285 6.55112 15.1398 6.55112 15.6492V17.4904C6.55112 17.9993 6.13323 18.4111 5.61577 18.4111Z" fill="#72283F"/>
<path d="M28.996 15.6601C28.7735 15.6601 28.5497 15.5828 28.3712 15.4246C27.9866 15.0861 27.9551 14.503 28.2999 14.1245L33.3425 8.58992C33.6887 8.21142 34.2788 8.1813 34.6633 8.51979C35.0479 8.85874 35.0794 9.44133 34.7341 9.81983L29.692 15.3549C29.5075 15.5563 29.2522 15.6601 28.996 15.6601Z" fill="#72283F"/>
<path d="M34.6108 57.9991C34.0938 57.9991 33.6754 57.5873 33.6754 57.0784V47.8694C33.6754 47.36 34.0938 46.9487 34.6108 46.9487C35.1282 46.9487 35.5461 47.36 35.5461 47.8694V57.0784C35.5461 57.5873 35.1282 57.9991 34.6108 57.9991Z" fill="#72283F"/>
<path d="M0.935352 48.7936C0.417894 48.7936 0 48.3823 0 47.873C0 43.3031 3.77703 39.5854 8.42 39.5854C8.93746 39.5854 9.35535 39.9968 9.35535 40.5061C9.35535 41.015 8.93746 41.4267 8.42 41.4267C4.80875 41.4267 1.8707 44.3185 1.8707 47.873C1.8707 48.3823 1.45281 48.7936 0.935352 48.7936Z" fill="#72283F"/>
<path d="M8.41997 41.4271C7.90388 41.4271 7.48462 41.0154 7.48462 40.5065C7.48462 39.9981 7.90297 39.5859 8.41997 39.5859L14.9656 39.585C15.4817 39.585 15.901 39.9963 15.901 40.5056C15.901 41.0136 15.4831 41.4262 14.9656 41.4262L8.41997 41.4271Z" fill="#72283F"/>
<path d="M0.936266 57.0785C0.420178 57.0785 0.00091343 56.6667 0.00091343 56.1579L0 47.873C0 47.3651 0.417894 46.9524 0.935352 46.9524C1.45144 46.9524 1.8707 47.3637 1.8707 47.873L1.87162 56.1579C1.87162 56.6658 1.45372 57.0785 0.936266 57.0785Z" fill="#72283F"/>
<path d="M1.87156 57.9992C0.83984 57.9992 0.000854492 57.1734 0.000854492 56.1579C0.000854492 55.6486 0.419205 55.2373 0.936207 55.2373C1.45366 55.2373 1.87156 55.6486 1.87156 56.1579V56.1597C2.38902 56.1597 2.80691 56.5702 2.80691 57.0795C2.80691 57.5874 2.38902 57.9992 1.87156 57.9992Z" fill="#72283F"/>
<path d="M42.3098 57.9995H1.87175C1.35475 57.9995 0.936401 57.5877 0.936401 57.0788C0.936401 56.5695 1.35475 56.1582 1.87175 56.1582H42.3088C42.8263 56.1582 43.2442 56.5695 43.2442 57.0788C43.2442 57.5877 42.8263 57.9995 42.3098 57.9995Z" fill="#72283F"/>
<path d="M14.9655 41.4273C14.448 41.4273 14.0302 41.0155 14.0302 40.5067V36.1521C14.0302 35.6428 14.448 35.2314 14.9655 35.2314C15.483 35.2314 15.9009 35.6428 15.9009 36.1521V40.5067C15.9009 41.0155 15.483 41.4273 14.9655 41.4273Z" fill="#72283F"/>
<path d="M28.0605 41.4273C27.543 41.4273 27.1251 41.0155 27.1251 40.5067V36.1521C27.1251 35.6428 27.543 35.2314 28.0605 35.2314C28.5779 35.2314 28.9958 35.6428 28.9958 36.1521V40.5067C28.9958 41.0155 28.5779 41.4273 28.0605 41.4273Z" fill="#72283F"/>
<path d="M21.5131 38.6659C13.2617 38.6659 6.54749 32.0574 6.54749 23.9358C6.54749 23.4265 6.96538 23.0151 7.48284 23.0151C8.0003 23.0151 8.41819 23.4265 8.41819 23.9358C8.41819 31.0433 14.292 36.8247 21.5131 36.8247C28.7342 36.8247 34.6081 31.0433 34.6081 23.9358C34.6081 23.4265 35.026 23.0151 35.5434 23.0151C36.0609 23.0151 36.4788 23.4265 36.4788 23.9358C36.4788 32.0574 29.7646 38.6659 21.5131 38.6659Z" fill="#72283F"/>
<path d="M34.6098 41.4277H28.0605C27.543 41.4277 27.1251 41.0159 27.1251 40.5071C27.1251 39.9977 27.543 39.5864 28.0605 39.5864H34.6098C35.1272 39.5864 35.5451 39.9977 35.5451 40.5071C35.5451 41.0159 35.1272 41.4277 34.6098 41.4277Z" fill="#72283F"/>
<path d="M21.513 44.1895C17.7939 44.1895 14.0302 42.9218 14.0302 40.4997C14.0302 39.9904 14.448 39.5791 14.9655 39.5791C15.483 39.5791 15.9009 39.9904 15.9009 40.4997C15.9009 41.1516 18.0314 42.3482 21.513 42.3482C24.9945 42.3482 27.1251 41.1516 27.1251 40.4997C27.1251 39.9904 27.543 39.5791 28.0604 39.5791C28.5779 39.5791 28.9958 39.9904 28.9958 40.4997C28.9958 42.9218 25.232 44.1895 21.513 44.1895Z" fill="#72283F"/>
<path d="M8.41631 57.9991C7.89885 57.9991 7.48096 57.5873 7.48096 57.0784V47.8694C7.48096 47.36 7.89885 46.9487 8.41631 46.9487C8.93331 46.9487 9.35166 47.36 9.35166 47.8694V57.0784C9.35166 57.5873 8.93331 57.9991 8.41631 57.9991Z" fill="#72283F"/>
<path d="M34.6098 48.79H8.41631C7.89885 48.79 7.48096 48.3782 7.48096 47.8694C7.48096 47.36 7.89885 46.9487 8.41631 46.9487H34.6098C35.1273 46.9487 35.5452 47.36 35.5452 47.8694C35.5452 48.3782 35.1273 48.79 34.6098 48.79Z" fill="#72283F"/>
<path d="M10.2889 48.79C9.77141 48.79 9.35352 48.3783 9.35352 47.8694V40.5007C9.35352 39.9914 9.77141 39.5801 10.2889 39.5801C10.8063 39.5801 11.2242 39.9914 11.2242 40.5007V47.8694C11.2242 48.3783 10.8063 48.79 10.2889 48.79Z" fill="#72283F"/>
<path d="M13.0949 48.79C12.5774 48.79 12.1595 48.3783 12.1595 47.8694V40.5007C12.1595 39.9914 12.5774 39.5801 13.0949 39.5801C13.6124 39.5801 14.0303 39.9914 14.0303 40.5007V47.8694C14.0303 48.3783 13.6124 48.79 13.0949 48.79Z" fill="#72283F"/>
<path d="M29.9312 48.79C29.4137 48.79 28.9958 48.3783 28.9958 47.8694V40.5007C28.9958 39.9914 29.4137 39.5801 29.9312 39.5801C30.4487 39.5801 30.8666 39.9914 30.8666 40.5007V47.8694C30.8666 48.3783 30.4487 48.79 29.9312 48.79Z" fill="#72283F"/>
<path d="M32.7374 48.79C32.2199 48.79 31.802 48.3783 31.802 47.8694V40.5007C31.802 39.9914 32.2199 39.5801 32.7374 39.5801C33.2548 39.5801 33.6727 39.9914 33.6727 40.5007V47.8694C33.6727 48.3783 33.2548 48.79 32.7374 48.79Z" fill="#72283F"/>
<path d="M15.8984 57.9991C15.3809 57.9991 14.963 57.5873 14.963 57.0784V53.3977C14.963 52.8888 15.3809 52.4771 15.8984 52.4771C16.4154 52.4771 16.8337 52.8888 16.8337 53.3977V57.0784C16.8337 57.5873 16.4154 57.9991 15.8984 57.9991Z" fill="#72283F"/>
<path d="M27.1271 57.9991C26.6101 57.9991 26.1918 57.5873 26.1918 57.0784V53.3977C26.1918 52.8888 26.6101 52.4771 27.1271 52.4771C27.6446 52.4771 28.0625 52.8888 28.0625 53.3977V57.0784C28.0625 57.5873 27.6446 57.9991 27.1271 57.9991Z" fill="#72283F"/>
<path d="M27.127 54.3183H15.9009C15.3835 54.3183 14.9656 53.907 14.9656 53.3977C14.9656 52.8888 15.3835 52.4771 15.9009 52.4771H27.127C27.6444 52.4771 28.0623 52.8888 28.0623 53.3977C28.0623 53.907 27.6444 54.3183 27.127 54.3183Z" fill="#72283F"/>
<path d="M19.6451 25.7758H12.1623C11.6453 25.7758 11.2269 25.364 11.2269 24.8551V21.1726C11.2269 20.6633 11.6453 20.252 12.1623 20.252H19.6451C20.1626 20.252 20.5805 20.6633 20.5805 21.1726V24.8551C20.5805 25.364 20.1626 25.7758 19.6451 25.7758ZM13.0976 23.9345H18.7097V22.0932H13.0976V23.9345Z" fill="#72283F"/>
<path d="M30.8693 25.7758H23.3865C22.8695 25.7758 22.4512 25.364 22.4512 24.8551V21.1726C22.4512 20.6633 22.8695 20.252 23.3865 20.252H30.8693C31.3868 20.252 31.8047 20.6633 31.8047 21.1726V24.8551C31.8047 25.364 31.3868 25.7758 30.8693 25.7758ZM24.3219 23.9345H29.934V22.0932H24.3219V23.9345Z" fill="#72283F"/>
<path d="M23.3866 23.9345H19.6452C19.1282 23.9345 18.7098 23.5228 18.7098 23.0139C18.7098 22.5046 19.1282 22.0933 19.6452 22.0933H23.3866C23.9041 22.0933 24.322 22.5046 24.322 23.0139C24.322 23.5228 23.9041 23.9345 23.3866 23.9345Z" fill="#72283F"/>
<path d="M47.7113 47.8721C47.4719 47.8721 47.2326 47.7817 47.0499 47.6024L44.2439 44.8404C43.8785 44.4804 43.8785 43.8987 44.2439 43.5386C44.6097 43.1785 45.2012 43.1785 45.5665 43.5386L48.3726 46.3005C48.7384 46.6606 48.7384 47.2423 48.3726 47.6024C48.1904 47.7817 47.951 47.8721 47.7113 47.8721Z" fill="#72283F"/>
<path d="M47.7111 47.8721C47.4718 47.8721 47.2325 47.7817 47.0498 47.6024C46.6844 47.2423 46.6844 46.6606 47.0498 46.3005L49.8558 43.5386C50.2217 43.1785 50.8131 43.1785 51.1785 43.5386C51.5443 43.8987 51.5443 44.4804 51.1785 44.8404L48.3724 47.6024C48.1902 47.7817 47.9509 47.8721 47.7111 47.8721Z" fill="#72283F"/>
<path d="M50.5173 45.1103H44.9052C44.3882 45.1103 43.9698 44.6985 43.9698 44.1897C43.9698 43.6804 44.3882 43.269 44.9052 43.269H50.5173C51.0348 43.269 51.4527 43.6804 51.4527 44.1897C51.4527 44.6985 51.0348 45.1103 50.5173 45.1103Z" fill="#72283F"/>
<path d="M52.3869 52.4752C51.8699 52.4752 51.4515 52.0634 51.4515 51.5546C51.4515 49.5236 49.7736 47.872 47.7101 47.872C45.6467 47.872 43.9687 49.5236 43.9687 51.5546C43.9687 52.0634 43.5508 52.4752 43.0334 52.4752C42.5164 52.4752 42.098 52.0634 42.098 51.5546C42.098 48.5081 44.6154 46.0308 47.7101 46.0308C50.8053 46.0308 53.3222 48.5081 53.3222 51.5546C53.3222 52.0634 52.9044 52.4752 52.3869 52.4752Z" fill="#72283F"/>
<path d="M57.0637 57.9998H38.3521C37.8351 57.9998 37.4167 57.5885 37.4167 57.0791V51.5544C37.4167 51.0451 37.8351 50.6338 38.3521 50.6338H57.0637C57.5812 50.6338 57.9991 51.0451 57.9991 51.5544V57.0791C57.9991 57.5885 57.5812 57.9998 57.0637 57.9998ZM39.2875 56.1585H56.1284V52.4751H39.2875V56.1585Z" fill="#72283F"/>
<path d="M57.0639 52.4755C56.6935 52.4755 56.3418 52.2574 56.1952 51.8965L54.3245 47.2924C54.1327 46.8199 54.3665 46.2841 54.8465 46.0953C55.3215 45.9056 55.8705 46.1357 56.0623 46.6091L57.933 51.2132C58.1248 51.6856 57.891 52.2215 57.411 52.4103C57.2977 52.4552 57.1799 52.4755 57.0639 52.4755Z" fill="#72283F"/>
<path d="M38.3548 52.4751C38.2388 52.4751 38.121 52.4549 38.0077 52.4099C37.5281 52.2211 37.2943 51.6853 37.4861 51.2128L39.3568 46.6087C39.5473 46.1345 40.0958 45.9052 40.5726 46.0949C41.0526 46.2837 41.2864 46.8196 41.0946 47.292L39.2239 51.8961C39.0769 52.2571 38.7252 52.4751 38.3548 52.4751Z" fill="#72283F"/>
<path d="M55.1931 47.8713C55.0958 47.8713 54.9958 47.8555 54.8976 47.8232C54.4085 47.6631 54.1427 47.1421 54.3066 46.6589L56.1773 41.1333C56.3408 40.6514 56.8665 40.3884 57.3607 40.5511C57.8498 40.7116 58.1152 41.2326 57.9517 41.7159L56.081 47.2415C55.9499 47.6272 55.585 47.8713 55.1931 47.8713Z" fill="#72283F"/>
<path d="M40.2257 47.8714C39.8338 47.8714 39.4689 47.6273 39.3392 47.2416L37.4685 41.716C37.3045 41.2336 37.5694 40.7117 38.0595 40.5512C38.5545 40.3885 39.0788 40.6506 39.2428 41.1334L41.1135 46.659C41.277 47.1413 41.0126 47.6632 40.5225 47.8233C40.423 47.8556 40.3229 47.8714 40.2257 47.8714Z" fill="#72283F"/>
<path d="M55.1931 47.8711H40.2256C39.7086 47.8711 39.2903 47.4593 39.2903 46.9504C39.2903 46.4411 39.7086 46.0298 40.2256 46.0298H55.1931C55.7106 46.0298 56.1285 46.4411 56.1285 46.9504C56.1285 47.4593 55.7106 47.8711 55.1931 47.8711Z" fill="#72283F"/>
<path d="M38.3548 41.4245C37.8378 41.4245 37.4194 41.0127 37.4194 40.5038C37.4194 38.4701 39.1006 36.8154 41.1668 36.8154C41.6838 36.8154 42.1021 37.2272 42.1021 37.7361C42.1021 38.2454 41.6838 38.6567 41.1668 38.6567C40.1319 38.6567 39.2901 39.4847 39.2901 40.5038C39.2901 41.0127 38.8722 41.4245 38.3548 41.4245Z" fill="#72283F"/>
<path d="M57.0638 41.4245C56.5468 41.4245 56.1284 41.0127 56.1284 40.5038C56.1284 39.4856 55.2876 38.6567 54.2522 38.6567C53.7352 38.6567 53.3169 38.2454 53.3169 37.7361C53.3169 37.2272 53.7352 36.8154 54.2522 36.8154C56.3184 36.8154 57.9991 38.4701 57.9991 40.5038C57.9991 41.0127 57.5812 41.4245 57.0638 41.4245Z" fill="#72283F"/>
<path d="M57.0637 42.3457H38.3548C37.8378 42.3457 37.4194 41.9339 37.4194 41.425C37.4194 40.9157 37.8378 40.5044 38.3548 40.5044H57.0637C57.5811 40.5044 57.999 40.9157 57.999 41.425C57.999 41.9339 57.5811 42.3457 57.0637 42.3457Z" fill="#72283F"/>
<path d="M54.2523 38.6567H41.1669C40.6495 38.6567 40.2316 38.2454 40.2316 37.7361C40.2316 37.2272 40.6495 36.8154 41.1669 36.8154H54.2523C54.7697 36.8154 55.1876 37.2272 55.1876 37.7361C55.1876 38.2454 54.7697 38.6567 54.2523 38.6567Z" fill="#72283F"/>
<path d="M38.3548 42.3458C37.8378 42.3458 37.4194 41.934 37.4194 41.4252V40.5036C37.4194 39.9943 37.8378 39.583 38.3548 39.583C38.8722 39.583 39.2901 39.9943 39.2901 40.5036V41.4252C39.2901 41.934 38.8722 42.3458 38.3548 42.3458Z" fill="#72283F"/>
<path d="M57.0638 42.3458C56.5468 42.3458 56.1284 41.934 56.1284 41.4252V40.5036C56.1284 39.9943 56.5468 39.583 57.0638 39.583C57.5812 39.583 57.9991 39.9943 57.9991 40.5036V41.4252C57.9991 41.934 57.5812 42.3458 57.0638 42.3458Z" fill="#72283F"/>
</svg>
