<svg width="25" height="22" fill="none" xmlns="http://www.w3.org/2000/svg"><path d="M23.535 0H.833A.834.834 0 000 .833v2.931c0 .462.714.462.714 0V.833a.12.12 0 01.119-.12h22.702a.12.12 0 01.119.12V18.24a.12.12 0 01-.119.119h-4.574v-.743h3.59c.197 0 .357-.16.357-.357v-3.738c0-.462-.714-.462-.714 0v3.381H18.96v-1.584l.034.003c.296.026.665.059.92-.197s.223-.625.197-.921c-.028-.318.002-.405.247-.609.63-.523.641-1.084 0-1.617-.245-.203-.275-.29-.247-.608.07-.799-.303-1.19-1.117-1.119-.318.028-.404-.002-.607-.247-.522-.63-1.083-.642-1.616 0-.202.245-.288.275-.606.247-.799-.07-1.188.305-1.117 1.119.028.318-.002.405-.247.608-.63.524-.641 1.084 0 1.617.245.204.275.29.247.609-.075.855.333 1.186 1.151 1.115v1.584H2.174V2.17h20.02v9.447c0 .462.714.462.714 0V1.814a.357.357 0 00-.357-.357H1.817a.357.357 0 00-.357.357v15.445c0 .197.16.357.357.357H16.2v.743H.833a.12.12 0 01-.12-.12V5.574c0-.462-.713-.462-.713 0V18.24c0 .459.374.833.833.833H16.2v1.615c.051.294.22.402.508.324l.873-.406.872.406c.216.1.508-.058.508-.324v-1.615h4.574c.46 0 .833-.374.833-.833V.833A.834.834 0 0023.535 0zm-7.431 14.61c-.358.032-.375.012-.344-.345.048-.548-.078-.868-.501-1.22-.29-.24-.29-.278 0-.519.423-.352.55-.672.501-1.22-.031-.357-.014-.376.344-.345.548.049.867-.078 1.218-.502.24-.29.277-.29.517 0 .35.424.67.55 1.218.502.358-.031.375-.012.344.345-.048.548.078.868.501 1.22.29.24.29.279 0 .52-.423.351-.55.671-.501 1.22.031.356.014.375-.344.344-.224-.02-.478-.042-.702.05-.217.09-.369.275-.516.453-.07.083-.196.236-.259.264-.062-.028-.188-.18-.258-.264-.147-.178-.3-.362-.516-.452a1.564 1.564 0 00-.703-.051zm1.627 5.279a.357.357 0 00-.301 0l-.516.24v-4.396c.17.187.378.36.666.36.288 0 .497-.173.667-.36v4.396l-.516-.24z" fill="#000"/><path d="M4.629 5.158h12.305c.462 0 .462-.713 0-.713H4.63c-.462 0-.462.713 0 .713zM20.096 6.973a.357.357 0 00-.357-.357H4.629c-.461 0-.461.714 0 .714h15.11c.197 0 .357-.16.357-.357zM13.57 9.144a.357.357 0 00-.356-.357H4.629c-.461 0-.461.714 0 .714h8.585c.197 0 .357-.16.357-.357zM8.883 14.12H8.3c-.374 0-.58-.1-.657-.497-.07-.362-.592-.316-.688 0-.042.14-.257.541-.444.509-.099-.018-.142-.17-.179-.25a3.047 3.047 0 01-.168-.481c-.187-.692-.225-1.414-.343-2.119-.068-.409-.69-.293-.7.095-.033 1.236-.235 2.455-.675 3.614-.163.43.527.616.689.19.17-.447.304-.905.409-1.369.056.17.122.335.204.497.209.412.634.655 1.089.472.162-.065.31-.18.436-.319.338.39.84.372 1.309.372l2.12-.005c.46-.001.46-.715 0-.714l-1.818.004zM17.58 14.18c.77 0 1.395-.625 1.395-1.394 0-.769-.626-1.394-1.395-1.394-.768 0-1.394.625-1.394 1.394 0 .769.626 1.394 1.395 1.394zm0-2.075a.681.681 0 11-.001 1.363.681.681 0 01.002-1.363z" fill="#000"/></svg>