<svg width="17" height="17" fill="none" xmlns="http://www.w3.org/2000/svg"><path d="M8.5 2.772a.37.37 0 00.37-.37v-.185a.37.37 0 00-.37-.37.37.37 0 00-.37.37v.185c0 .203.167.37.37.37zM8.5 14.228a.37.37 0 00-.37.37v.184a.37.37 0 00.74 0v-.184a.37.37 0 00-.37-.37zM2.402 8.13h-.185a.37.37 0 00-.37.37c0 .204.167.37.37.37h.185a.37.37 0 00.37-.37.37.37 0 00-.37-.37zM14.783 8.13h-.185a.37.37 0 00-.37.37c0 .204.167.37.37.37h.185a.37.37 0 00.37-.37.37.37 0 00-.37-.37zM4.324 3.807a.357.357 0 00-.518 0 .357.357 0 000 .517l.13.13c.073.073.166.11.258.11a.365.365 0 00.259-.11.357.357 0 000-.518l-.13-.13zM3.936 12.546l-.13.13a.357.357 0 000 .517c.074.074.166.111.259.111a.365.365 0 00.259-.11l.129-.13a.357.357 0 000-.518.357.357 0 00-.517 0zM12.676 3.807l-.13.129a.357.357 0 000 .517c.074.074.167.111.26.111a.365.365 0 00.258-.11l.13-.13a.357.357 0 000-.517.357.357 0 00-.518 0zM8.87 8.352V4.989a.37.37 0 00-.37-.37.37.37 0 00-.37.37v3.51c0 .093.038.185.112.26l4.046 4.046c.074.074.167.11.26.11a.365.365 0 00.258-.11.357.357 0 000-.517L8.87 8.352z" fill="#888"/><path d="M8.5 0a8.501 8.501 0 000 17 8.501 8.501 0 000-17zm0 16.26A7.76 7.76 0 01.74 8.5 7.76 7.76 0 018.5.74a7.76 7.76 0 017.76 7.76 7.76 7.76 0 01-7.76 7.76z" fill="#888"/></svg>