<svg width="28" height="28" fill="none" xmlns="http://www.w3.org/2000/svg"><path d="M14 4.565a.61.61 0 00.609-.609v-.304A.61.61 0 0014 3.043a.61.61 0 00-.608.61v.304a.61.61 0 00.608.608zM14 23.435a.61.61 0 00-.608.609v.304a.61.61 0 00.608.609.61.61 0 00.609-.61v-.303a.61.61 0 00-.609-.61zM3.957 13.391h-.304a.61.61 0 00-.609.61.61.61 0 00.609.608h.304A.61.61 0 004.566 14a.61.61 0 00-.609-.609zM24.348 13.391h-.305a.61.61 0 00-.608.61.61.61 0 00.608.608h.305a.61.61 0 00.608-.609.61.61 0 00-.608-.609zM7.122 6.27a.588.588 0 00-.852 0 .588.588 0 000 .852l.213.213a.6.6 0 00.426.182.6.6 0 00.426-.182.588.588 0 000-.852l-.213-.213zM6.483 20.665l-.213.213a.588.588 0 000 .852.601.601 0 00.426.183c.152 0 .304-.06.426-.183l.213-.213a.588.588 0 000-.852.588.588 0 00-.852 0zM20.878 6.27l-.213.213a.589.589 0 000 .852.601.601 0 00.426.182.6.6 0 00.426-.182l.213-.213a.588.588 0 000-.852.588.588 0 00-.852 0zM14.609 13.757v-5.54A.61.61 0 0014 7.61a.61.61 0 00-.608.608V14c0 .152.06.304.182.426l6.665 6.665a.601.601 0 00.427.183c.152 0 .304-.061.426-.183a.588.588 0 000-.852l-6.483-6.482z" fill="#000"/><path d="M14 0C6.27 0 0 6.27 0 14s6.27 14 14 14 14-6.27 14-14S21.73 0 14 0zm0 26.783C6.94 26.783 1.217 21.06 1.217 14 1.217 6.94 6.94 1.217 14 1.217c7.06 0 12.783 5.722 12.783 12.783 0 7.06-5.722 12.783-12.783 12.783z" fill="#000"/></svg>