<svg width="29" height="27" viewBox="0 0 29 27" fill="none" xmlns="http://www.w3.org/2000/svg">
<path d="M20.575 1C18.1562 1.00377 15.8904 2.19541 14.5 4.1945C13.1096 2.19541 10.8438 1.00377 8.425 1C4.46948 1 1 4.71741 1 8.95462C1 13.0842 3.30845 17.3374 7.67617 21.2548C9.69985 23.0663 11.9198 24.641 14.2935 25.9494C14.4231 26.0169 14.5769 26.0169 14.7065 25.9494C17.0794 24.641 19.2986 23.0661 21.3216 21.2548C25.6916 17.3374 28 13.0842 28 8.95462C28 4.71741 24.5305 1 20.575 1ZM14.5 25.0288C12.8472 24.1075 1.9 17.671 1.9 8.95462C1.9 5.20148 4.94871 1.9091 8.425 1.9091C10.78 1.91332 12.9509 3.19662 14.108 5.26873C14.1946 5.40234 14.342 5.48268 14.5 5.48268C14.658 5.48268 14.8054 5.40234 14.892 5.26873C16.0491 3.19662 18.22 1.91332 20.575 1.9091C24.0513 1.9091 27.1 5.20148 27.1 8.95462C27.1 17.671 16.1528 24.1075 14.5 25.0288Z" fill="#C7C7C7" stroke="#C7C7C7"/>
</svg>
