<svg width="27" height="25" fill="none" xmlns="http://www.w3.org/2000/svg"><path d="M19.575.454A6.958 6.958 0 0013.5 4.045 6.958 6.958 0 007.425.455C3.573.454.45 4.063.45 7.954c0 9.772 13.05 16.59 13.05 16.59s13.05-6.818 13.05-16.59c0-3.891-3.123-7.5-6.975-7.5z" fill="#72283F"/><path d="M19.575 0A7.417 7.417 0 0013.5 3.195 7.417 7.417 0 007.425 0C3.469 0 0 3.717 0 7.955c0 4.13 2.308 8.382 6.676 12.3a35.92 35.92 0 006.617 4.694c.13.068.284.068.414 0a35.917 35.917 0 006.615-4.694c4.37-3.918 6.678-8.17 6.678-12.3C27 3.717 23.53 0 19.575 0zM13.5 24.029C11.847 23.108.9 16.67.9 7.955.9 4.2 3.949.909 7.425.909a6.527 6.527 0 015.683 3.36.467.467 0 00.784 0 6.527 6.527 0 015.683-3.36c3.476 0 6.525 3.292 6.525 7.046 0 8.716-10.947 15.153-12.6 16.074z" fill="#72283F"/></svg>