<svg width="17" height="15" viewBox="0 0 17 15" fill="none" xmlns="http://www.w3.org/2000/svg">
<path d="M8.43001 15C8.18998 15 7.95857 14.913 7.77823 14.7551C7.09712 14.1595 6.44046 13.5998 5.8611 13.1062L5.85814 13.1036C4.15956 11.6561 2.69278 10.406 1.67221 9.17466C0.531377 7.79804 0 6.49281 0 5.06693C0 3.68157 0.475037 2.40348 1.33751 1.46794C2.21028 0.521344 3.40784 0 4.70998 0C5.68321 0 6.57449 0.307687 7.35902 0.914443C7.75495 1.22071 8.11383 1.59555 8.43001 2.03277C8.74631 1.59555 9.10507 1.22071 9.50112 0.914443C10.2856 0.307687 11.1769 0 12.1502 0C13.4522 0 14.6499 0.521344 15.5226 1.46794C16.3851 2.40348 16.86 3.68157 16.86 5.06693C16.86 6.49281 16.3288 7.79804 15.1879 9.17453C14.1674 10.406 12.7007 11.656 11.0024 13.1033C10.422 13.5978 9.7643 14.1584 9.08165 14.7553C8.90144 14.913 8.6699 15 8.43001 15ZM4.70998 0.987634C3.68697 0.987634 2.74719 1.39591 2.06351 2.13734C1.36967 2.88997 0.987505 3.93034 0.987505 5.06693C0.987505 6.26616 1.43321 7.3387 2.43255 8.54449C3.39845 9.71002 4.83514 10.9343 6.4986 12.352L6.50169 12.3546C7.08323 12.8502 7.74247 13.412 8.42859 14.012C9.11883 13.4109 9.77909 12.8481 10.3618 12.3517C12.0251 10.9341 13.4617 9.71002 14.4276 8.54449C15.4268 7.3387 15.8725 6.26616 15.8725 5.06693C15.8725 3.93034 15.4903 2.88997 14.7965 2.13734C14.113 1.39591 13.173 0.987634 12.1502 0.987634C11.4008 0.987634 10.7127 1.22586 10.1052 1.69562C9.56377 2.11445 9.18662 2.6439 8.9655 3.01436C8.85179 3.20486 8.65164 3.31857 8.43001 3.31857C8.20837 3.31857 8.00822 3.20486 7.89451 3.01436C7.67352 2.6439 7.29637 2.11445 6.75484 1.69562C6.14731 1.22586 5.45926 0.987634 4.70998 0.987634Z" fill="black"/>
</svg>
