<svg width="29" height="27" fill="none" xmlns="http://www.w3.org/2000/svg"><path d="M20.575 1A7.417 7.417 0 0014.5 4.194 7.417 7.417 0 008.425 1C4.469 1 1 4.717 1 8.955c0 4.13 2.308 8.382 6.676 12.3a35.92 35.92 0 006.617 4.694c.13.068.284.068.414 0a35.917 35.917 0 006.615-4.694c4.37-3.918 6.678-8.17 6.678-12.3C28 4.717 24.53 1 20.575 1v0zM14.5 25.029C12.847 24.108 1.9 17.67 1.9 8.955c0-3.754 3.049-7.046 6.525-7.046a6.527 6.527 0 015.683 3.36.467.467 0 00.784 0 6.527 6.527 0 015.683-3.36c3.476 0 6.525 3.292 6.525 7.046 0 8.716-10.947 15.153-12.6 16.074z" fill="#000" stroke="#000"/></svg>