<svg width="20" height="17" fill="none" xmlns="http://www.w3.org/2000/svg"><path d="M.651 14.228h7.963a2.15 2.15 0 012.046-1.478c.95 0 1.768.628 2.047 1.478h6.642c.353 0 .651.296.651.647a.657.657 0 01-.651.647h-6.66A2.15 2.15 0 0110.641 17a2.167 2.167 0 01-2.047-1.478H.651A.657.657 0 010 14.875c0-.351.298-.647.651-.647zM19.349 9.147H7.107a2.15 2.15 0 01-2.047 1.478 2.167 2.167 0 01-2.046-1.478H.65A.657.657 0 010 8.5c0-.351.298-.647.651-.647h2.382a2.15 2.15 0 012.046-1.478c.949 0 1.768.628 2.047 1.478h12.223c.353 0 .651.296.651.647a.657.657 0 01-.651.647zM19.349 2.772h-4.521A2.15 2.15 0 0112.78 4.25a2.167 2.167 0 01-2.046-1.478H.65A.657.657 0 010 2.125c0-.351.298-.647.651-.647h10.103A2.15 2.15 0 0112.8 0c.949 0 1.767.628 2.046 1.478h4.503c.353 0 .651.296.651.647a.657.657 0 01-.651.647z" fill="#72283F"/></svg>