<svg width="142" height="142" fill="none" xmlns="http://www.w3.org/2000/svg"><path d="M135.074 94.032v-2.159c0-9.207-6.685-16.878-15.454-18.427l13.392-43.177c.024-.074.043-.149.059-.225l.003-.02a2.153 2.153 0 00.038-.404v-.015C133.112 13.281 119.831 0 103.507 0H38.493a29.466 29.466 0 00-16.487 5.012c-2.16 1.452.06 4.971 2.32 3.454A25.32 25.32 0 0138.493 4.16h65.014c13.34 0 24.315 10.319 25.362 23.394H83.527a5.651 5.651 0 00-2.999-3.195c-6.367-2.862-12.984-2.87-19.136-.024a5.58 5.58 0 00-2.937 3.219H13.13a25.276 25.276 0 014.263-12.174c1.457-2.157-1.924-4.584-3.448-2.329a29.46 29.46 0 00-5.057 16.554V29.634l.002.04c.001.053.003.107.008.161.004.035.01.068.015.102.005.033.008.066.015.1.01.053.024.105.039.157.003.013.005.026.009.038l.003.01.005.018 12.979 43.26c-8.564 1.716-15.037 9.293-15.037 18.354v2.159C3.048 94.387 0 97.656 0 101.625v20.499C0 133.084 8.916 142 19.876 142h102.248c10.96 0 19.876-8.916 19.876-19.876v-20.499c0-3.969-3.048-7.238-6.926-7.593zm-32.086-20.877c-1.704-6.787-5.597-12.93-11.062-17.405A33.108 33.108 0 0071 48.29c-15.126 0-28.36 10.376-31.99 24.866h-4.852c1.728-7.93 6.032-15.15 12.268-20.507A37.733 37.733 0 0171 43.542c9.07 0 17.841 3.272 24.698 9.213 6.175 5.35 10.429 12.524 12.145 20.4h-4.855zm-4.312 0H43.323C46.84 61.032 58.135 52.449 71 52.449c12.85 0 24.157 8.589 27.676 20.706zm-72.48 0L13.765 31.714h44.859l3.692 8.582a41.897 41.897 0 00-18.6 9.197c-7.154 6.145-12.019 14.505-13.804 23.662h-3.714zm85.895 0c-1.774-9.098-6.583-17.404-13.67-23.545a41.884 41.884 0 00-18.562-9.278l3.567-8.618h44.783l-12.854 41.44h-3.264zM63.138 28.11c5.026-2.325 10.45-2.31 15.684.043.745.335 1.088 1.176.783 1.915l-3.963 9.572a41.913 41.913 0 00-9.09-.02l-4.13-9.604a1.47 1.47 0 01.716-1.906zm74.702 94.014c0 8.666-7.05 15.716-15.716 15.716H19.876c-8.666 0-15.716-7.05-15.716-15.716v-20.499a3.47 3.47 0 013.467-3.466H49.16v3.189c0 4.205 3.421 7.626 7.627 7.626h28.426c4.205 0 7.627-3.421 7.627-7.626v-3.19h13.663c2.603 0 2.721-4.16 0-4.16H11.087v-2.125c0-8.027 6.53-14.558 14.558-14.558h90.71c8.028 0 14.558 6.53 14.558 14.558V94h-13.359c-2.603 0-2.721 4.16 0 4.16h16.819a3.47 3.47 0 013.467 3.466v20.499zM53.32 98.159h35.36v3.189a3.47 3.47 0 01-3.467 3.466H56.787a3.47 3.47 0 01-3.467-3.466v-3.19z" fill="#72283F"/></svg>