<svg width="28" height="28" fill="none" xmlns="http://www.w3.org/2000/svg"><path d="M15.04 20.781a1.094 1.094 0 11-2.188 0 1.094 1.094 0 012.187 0zm0-13.18a1.094 1.094 0 10-2.188 0v9.352a1.094 1.094 0 102.187 0V7.602zm8.86-3.5A13.908 13.908 0 0014 0c-3.74 0-7.255 1.456-9.9 4.1A13.909 13.909 0 000 14c0 3.74 1.456 7.255 4.1 9.9A13.909 13.909 0 0014 28c2.56 0 5.065-.698 7.244-2.018a1.094 1.094 0 10-1.133-1.87 11.792 11.792 0 01-6.111 1.7C7.487 25.813 2.187 20.514 2.187 14c0-6.513 5.3-11.813 11.813-11.813 6.513 0 11.813 5.3 11.813 11.813 0 2.33-.693 4.596-2.003 6.556a1.094 1.094 0 001.818 1.216A13.943 13.943 0 0028 14c0-3.74-1.456-7.255-4.1-9.9z" fill="#5EA752"/></svg>