<svg width="24" height="24" fill="none" xmlns="http://www.w3.org/2000/svg"><path d="M12.01 23.5H12C5.647 23.5.5 18.362.5 12.01V12C.5 5.647 5.647.5 12 .5S23.5 5.647 23.5 12v.01c0 6.343-5.147 11.49-11.49 11.49z" stroke="#959595"/><path d="M12 6.96c1.646 0 1.835.01 2.487.038.596.028.927.123 1.144.208.284.113.492.246.71.463.217.218.35.416.463.71.085.217.189.538.208 1.144.028.652.038.841.038 2.486 0 1.646-.01 1.835-.038 2.487-.029.596-.123.927-.208 1.145a1.965 1.965 0 01-.463.709c-.218.217-.417.35-.71.463-.217.085-.539.19-1.144.208-.652.029-.841.038-2.487.038-1.645 0-1.834-.01-2.487-.038-.596-.028-.927-.123-1.144-.208a1.962 1.962 0 01-.71-.463 1.887 1.887 0 01-.463-.71c-.085-.217-.189-.538-.208-1.144-.028-.652-.038-.841-.038-2.487 0-1.645.01-1.834.038-2.486.029-.596.123-.927.208-1.145.114-.283.246-.491.464-.709.217-.217.416-.35.709-.463.217-.085.539-.19 1.144-.208.653-.029.851-.038 2.487-.038zm0-1.106c-1.674 0-1.882.009-2.534.037-.653.029-1.107.133-1.494.284-.407.16-.747.369-1.088.71-.34.34-.548.68-.709 1.087-.151.387-.255.841-.284 1.494-.028.652-.037.87-.037 2.534 0 1.674.009 1.882.037 2.534.029.653.133 1.107.284 1.495.16.406.369.747.71 1.087.34.34.68.548 1.087.71.387.15.841.255 1.494.283.652.028.87.038 2.534.038 1.674 0 1.882-.01 2.534-.038.653-.029 1.107-.133 1.495-.284.406-.16.747-.369 1.087-.71.34-.34.548-.68.71-1.086.15-.388.255-.842.283-1.495.028-.652.038-.87.038-2.534 0-1.664-.01-1.882-.038-2.534-.029-.653-.133-1.107-.284-1.494a3.043 3.043 0 00-.71-1.088c-.34-.34-.68-.548-1.086-.709-.388-.151-.842-.255-1.495-.284-.652-.028-.86-.037-2.534-.037z" fill="#959595"/><path d="M12 8.842a3.158 3.158 0 10-.001 6.316 3.158 3.158 0 000-6.316zm0 5.21A2.05 2.05 0 019.948 12 2.05 2.05 0 0112 9.948 2.05 2.05 0 0114.052 12 2.05 2.05 0 0112 14.052zM15.29 9.456a.737.737 0 100-1.475.737.737 0 000 1.475z" fill="#959595"/></svg>