<svg width="182" height="52" fill="none" xmlns="http://www.w3.org/2000/svg"><path d="M44.698 22.5H25.93V13H38.4v-2.125H25.93v-8h17.903V.75H23.954v23.875h20.744V22.5zM90.63 9.5L100.63.75h-2.717l-16.051 14v-14H80.01v23.875h1.852V17.25l7.285-6.375 10.495 13.75h2.346L90.629 9.5zM122.856 12.124c-.987-.5-2.222-.75-3.704-1-.864-.125-2.469-.25-4.939-.375-2.84-.125-4.939-.5-6.05-1-1.482-.5-2.223-1.5-2.223-3s.741-2.625 2.1-3.375c1.358-.75 3.457-1.25 6.05-1.25 3.334 0 6.297.75 8.89 2.375l1.358-1.625C121.869 1 118.411.124 113.966.124c-3.334 0-5.803.625-7.655 1.875-1.729 1.25-2.717 2.875-2.717 5 0 2.25.988 3.875 3.087 4.75.865.375 1.976.625 3.458.75.864.125 2.469.25 4.692.375 3.086.125 5.185.5 6.544 1.125 1.481.75 2.099 1.875 2.099 3.5 0 1.75-.741 3.125-2.346 4-1.605 1-3.828 1.5-6.791 1.5-3.705 0-7.038-1.125-10.125-3.25l-1.111 1.75c2.963 2.375 6.914 3.5 11.73 3.5 3.58 0 6.297-.625 8.149-2 1.852-1.375 2.84-3.25 2.84-5.625.123-2.375-.865-4.125-2.964-5.25zM72.48.75h-1.853V24.5h1.852V.75zM143.106 0c-3.581 0-6.544 1.125-8.89 3.25-2.593 2.375-3.951 5.5-3.951 9.375s1.358 7 3.951 9.375c2.346 2.125 5.309 3.25 8.89 3.25 3.581 0 6.544-1.125 8.89-3.25 2.593-2.375 3.951-5.5 3.951-9.375 0-3.75-1.358-6.875-3.951-9.375-2.469-2.125-5.433-3.25-8.89-3.25zm7.779 20.25c-1.976 2-4.569 2.875-7.779 2.875s-5.803-1-7.779-2.875c-1.976-2-2.963-4.5-2.963-7.625 0-3.25 1.111-5.875 3.457-8C137.797 2.875 140.266 2 143.106 2s5.309.875 7.285 2.625c2.346 2 3.457 4.625 3.457 8 0 3.125-.988 5.75-2.963 7.625zM179.777.75l-9.384 20.875h-.987L160.022.75h-2.223l10.619 23.875h2.963L182 .75h-2.223zM67.417 22.5H50.995V.75h-1.976v23.875h18.398V22.5zM0 24.624h1.852V13h12.47v-2.125H1.853v-8H19.88V.75H0v23.875zM56.921 40.5h-.864v11h.864v-11zM48.031 40.5h-5.926v11h6.173c1.358 0 2.593-.5 3.457-1.5.988-1 1.359-2.25 1.359-3.875 0-1.75-.494-3.125-1.359-4.125-.864-1-2.099-1.5-3.704-1.5zm3.087 8.75c-.74.875-1.605 1.375-2.716 1.375h-5.433V41.5h5.186c1.234 0 2.222.375 2.963 1.25.74.875 1.111 2 1.111 3.375 0 1.25-.37 2.25-1.11 3.125zM122.362 40.5h-5.926v11h6.173c1.358 0 2.593-.5 3.457-1.5.988-1 1.359-2.25 1.359-3.875 0-1.75-.494-3.125-1.359-4.125-.864-1-2.099-1.5-3.704-1.5zm3.087 8.75c-.741.875-1.605 1.375-2.716 1.375H117.3V41.5h5.186c1.234 0 2.222.375 2.963 1.25.741.875 1.111 2 1.111 3.375 0 1.25-.37 2.25-1.111 3.125zM112.114 50.625L103.841 40.5h-1.235v11.125h.865V41.5l8.272 10.125h1.235V40.5h-.864v10.125zM63.836 40.5l-5.186 11h.988l1.358-2.875h7.038l1.358 2.875h.988l-5.186-11h-1.358zm-2.346 7.25l2.963-6.25h.124l2.963 6.25h-6.05zM138.414 45.875c-.494-.25-.988-.375-1.729-.5-.37 0-1.111-.125-2.346-.125-1.358 0-2.222-.25-2.84-.5-.617-.25-.987-.75-.987-1.375s.37-1.25.987-1.625c.618-.375 1.606-.5 2.84-.5 1.605 0 2.964.375 4.075 1.125l.617-.75c-1.111-.875-2.716-1.25-4.815-1.25-1.482 0-2.717.25-3.581.875-.864.625-1.235 1.375-1.235 2.375 0 1.125.494 1.75 1.482 2.25.37.125.988.25 1.605.375.371 0 1.111.125 2.223.125 1.358.125 2.469.25 2.963.5.617.375.988.875.988 1.625s-.371 1.375-1.111 1.875c-.741.5-1.729.625-3.087.625-1.729 0-3.334-.5-4.692-1.5l-.494.875C130.635 51.5 132.487 52 134.71 52c1.605 0 2.84-.25 3.827-.875.865-.625 1.359-1.5 1.359-2.625 0-1.375-.494-2.25-1.482-2.625zM78.529 47.875L73.467 40.5h-1.359v11.125h.865V41.5l5.556 7.875 5.433-7.875v10.125h.988V40.5H83.59l-5.062 7.375zM93.716 40.125c-1.605 0-2.963.5-4.074 1.5C88.407 42.75 87.79 44.25 87.79 46s.617 3.25 1.852 4.375c1.11 1 2.47 1.5 4.074 1.5 1.605 0 2.964-.5 4.075-1.5 1.235-1.125 1.852-2.625 1.852-4.375s-.617-3.25-1.852-4.375c-1.111-1-2.47-1.5-4.075-1.5zm3.705 9.5C96.556 50.5 95.32 51 93.84 51c-1.482 0-2.717-.5-3.581-1.375-.864-.875-1.358-2.125-1.358-3.5 0-1.5.494-2.75 1.605-3.625.988-.875 2.099-1.25 3.457-1.25 1.358 0 2.47.375 3.458 1.25 1.11 1 1.605 2.125 1.605 3.625-.247 1.375-.741 2.5-1.605 3.5z" fill="#231F20"/></svg>