<svg width="58" height="72" fill="none" xmlns="http://www.w3.org/2000/svg"><path fill-rule="evenodd" clip-rule="evenodd" d="M8.499 8.855C19.83-2.952 38.17-2.951 49.5 8.855c11.333 11.806 11.331 30.915 0 42.72L30.533 71.339a2.106 2.106 0 01-3.064 0L8.498 51.575c-11.332-11.807-11.33-30.916 0-42.72z" fill="#72283F"/><path d="M42.14 43.622l-2.007-22.363a1.184 1.184 0 00-1.18-1.079h-4.14v-1.867A6.32 6.32 0 0028.5 12a6.32 6.32 0 00-6.312 6.313v1.867h-4.144c-.613 0-1.125.468-1.18 1.079l-2.016 22.45a1.185 1.185 0 001.18 1.29h24.944a1.184 1.184 0 001.169-1.377zm-17.583-25.31A3.948 3.948 0 0128.5 14.37a3.948 3.948 0 013.943 3.944v1.867h-7.886v-1.867zm-7.233 24.32l1.803-20.083h3.061v2.118a1.184 1.184 0 102.369 0V22.55h7.886v2.118a1.184 1.184 0 102.37 0V22.55h3.057l1.804 20.082h-22.35z" fill="#fff"/></svg>