<svg width="20" height="23" fill="none" xmlns="http://www.w3.org/2000/svg"><path d="M17.703.805a2.754 2.754 0 00-3.891 0l-.974.98-10.37 10.364-.022.022c-.006.006-.006.011-.011.011-.011.017-.028.033-.039.05 0 .005-.006.005-.006.01l-.027.045c-.005.005-.005.01-.01.016l-.018.044c0 .006-.005.006-.005.011l-2.3 6.919a.542.542 0 00.131.561.554.554 0 00.567.133l6.914-2.307c.005 0 .005 0 .01-.005a.195.195 0 00.05-.022.02.02 0 00.011-.006c.017-.01.039-.022.055-.033.017-.01.033-.027.05-.038.005-.006.01-.006.01-.011.006-.006.017-.011.023-.022L19.195 6.183a2.754 2.754 0 000-3.892L17.703.805zM7.466 16.371L3.635 12.54l9.588-9.588 3.83 3.83-9.587 9.589zm-4.371-2.813l3.347 3.347-5.026 1.673 1.679-5.02zm15.324-8.146L17.835 6l-3.83-3.831.589-.589a1.651 1.651 0 012.333 0l1.497 1.497c.64.647.638 1.69-.005 2.334zM0 22h20v1H0z" fill="red"/></svg>