<svg width="17" height="17" fill="none" xmlns="http://www.w3.org/2000/svg"><path d="M12.218 17a4.737 4.737 0 01-1.625-.29A17.327 17.327 0 014.3 12.7 17.326 17.326 0 01.29 6.406a4.702 4.702 0 01-.24-2.311A4.813 4.813 0 012.528.566 4.734 4.734 0 014.795 0c.25 0 .467.175.52.42l.833 3.891a.531.531 0 01-.143.487L4.58 6.223a13.983 13.983 0 006.197 6.197l1.425-1.425a.532.532 0 01.487-.143l3.891.833c.245.053.42.27.42.52 0 .805-.19 1.568-.566 2.266a4.833 4.833 0 01-3.53 2.479c-.229.033-.458.05-.686.05zM4.37 1.086a3.68 3.68 0 00-2.632 1.567 3.66 3.66 0 00-.45 3.391 16.113 16.113 0 009.667 9.667 3.66 3.66 0 003.39-.45 3.68 3.68 0 001.568-2.632l-3.165-.678-1.488 1.488a.531.531 0 01-.602.105 15.042 15.042 0 01-7.203-7.203.531.531 0 01.105-.602l1.488-1.488-.678-3.165z" fill="#72283F"/></svg>