<svg width="14" height="17" fill="none" xmlns="http://www.w3.org/2000/svg"><path d="M11.949 2.09a6.902 6.902 0 00-9.898 0c-2.735 2.788-2.735 7.3 0 10.087l4.58 4.667a.516.516 0 00.739 0l4.579-4.667c2.735-2.787 2.735-7.299 0-10.086zm-.74 9.334L7 15.713l-4.209-4.29c-2.32-2.365-2.32-6.213 0-8.578a5.88 5.88 0 018.418 0c2.32 2.365 2.32 6.213 0 8.579z" fill="#888"/><path d="M7 4C5.342 4 4 5.342 4 7s1.342 3 3 3 3-1.342 3-3-1.342-3-3-3zm1.412 4.412c-.02 0-.492.585-1.412.585a1.996 1.996 0 110-3.994c1.793 0 2.654 2.167 1.412 3.409z" fill="#888"/></svg>