<svg width="25" height="28" fill="none" xmlns="http://www.w3.org/2000/svg"><path d="M19.167 18.156H17.5a.827.827 0 00-.833.82c0 .454.373.82.833.82h1.667c.46 0 .833-.366.833-.82a.827.827 0 00-.833-.82zM7.5 18.156H5.833a.827.827 0 00-.833.82c0 .454.373.82.833.82H7.5c.46 0 .833-.366.833-.82a.827.827 0 00-.833-.82z" fill="#000"/><path d="M24.71 26.558l-4.318-3.661c1.702-.517 2.941-2.079 2.941-3.92V7.383c0-2.262-1.869-4.102-4.166-4.102h-1.152l-.976-1.92A2.49 2.49 0 0014.803 0h-4.606A2.49 2.49 0 007.96 1.36l-.976 1.921H5.833c-2.297 0-4.166 1.84-4.166 4.102v11.594c0 1.841 1.24 3.403 2.94 3.92L.29 26.558a.811.811 0 00-.087 1.157c.3.343.827.382 1.175.086l1.7-1.442h18.845l1.7 1.442a.843.843 0 001.176-.086.812.812 0 00-.087-1.157zM9.451 2.094a.83.83 0 01.746-.453h4.606a.83.83 0 01.746.453l.603 1.187H8.848l.603-1.187zM5.833 4.916H19.167c1.086 0 2.012.692 2.356 1.646H3.477a2.507 2.507 0 012.356-1.646zM21.277 8.2l-2.046 5.128a2.488 2.488 0 01-2.321 1.547H8.09a2.486 2.486 0 01-2.32-1.542L3.724 8.2h17.554zM3.333 18.977v-7.264l.888 2.224c.637 1.567 2.155 2.579 3.87 2.579h8.819c1.714 0 3.232-1.012 3.87-2.583l.887-2.22v7.264c0 1.357-1.122 2.46-2.5 2.46H15v-.82c0-1.357-1.121-2.46-2.5-2.46S10 19.26 10 20.616v.82H5.833c-1.378 0-2.5-1.104-2.5-2.46zm10 1.64v.82h-1.666v-.82c0-.452.373-.82.833-.82.46 0 .833.368.833.82zm-8.32 4.102l1.935-1.64h11.104l1.936 1.64H5.013z" fill="#000"/></svg>