<svg width="24" height="24" fill="none" xmlns="http://www.w3.org/2000/svg"><path d="M12.01 23.5H12C5.647 23.5.5 18.362.5 12.01V12C.5 5.647 5.647.5 12 .5S23.5 5.647 23.5 12v.01c0 6.343-5.147 11.49-11.49 11.49z" stroke="#959595"/><path fill-rule="evenodd" clip-rule="evenodd" d="M11.556 16.728h.907s.275-.029.416-.18c.133-.142.123-.397.123-.397s-.019-1.22.549-1.4c.558-.18 1.276 1.183 2.033 1.703.577.397 1.012.312 1.012.312l2.033-.029s1.059-.066.558-.898c-.038-.066-.293-.615-1.513-1.75-1.277-1.181-1.107-.992.435-3.035.936-1.248 1.305-2.005 1.191-2.336-.113-.312-.794-.227-.794-.227l-2.288.02s-.17-.02-.294.056c-.123.076-.198.246-.198.246s-.36.965-.842 1.787c-1.021 1.73-1.428 1.825-1.588 1.712-.388-.246-.294-1.002-.294-1.541 0-1.674.256-2.374-.491-2.554-.246-.056-.435-.104-1.069-.104-.813-.01-1.503 0-1.9.199-.265.123-.464.416-.341.425.151.02.492.095.671.34.237.322.227 1.031.227 1.031s.133 1.977-.312 2.223c-.312.17-.728-.18-1.636-1.75-.463-.803-.813-1.692-.813-1.692s-.066-.17-.19-.256c-.14-.104-.349-.142-.349-.142l-2.175.01s-.33.01-.444.151c-.104.123-.01.388-.01.388s1.702 3.981 3.631 5.986c1.75 1.825 3.755 1.702 3.755 1.702z" fill="#959595"/></svg>